<svg width="167" height="32" viewBox="0 0 167 32" fill="none" xmlns="http://www.w3.org/2000/svg">
<g filter="url(#filter0_d_34912_276)">
<mask id="path-1-outside-1_34912_276" maskUnits="userSpaceOnUse" x="4" y="0" width="159" height="24" fill="black">
<rect fill="white" x="4" width="159" height="24"/>
<path d="M5 14.6625C5 13.1321 5.30483 11.777 5.9145 10.5969C6.54209 9.4169 7.38486 8.50423 8.44281 7.8589C9.51869 7.19513 10.7111 6.86325 12.0201 6.86325C12.9884 6.86325 13.9388 7.08451 14.8712 7.52702C15.8215 7.95109 16.5747 8.52266 17.1305 9.24174V1.88502H20.2237V22.3511H17.1305V20.0556C16.6285 20.7931 15.9291 21.4015 15.0326 21.8809C14.1539 22.3603 13.1408 22.6 11.9932 22.6C10.7022 22.6 9.51869 22.2681 8.44281 21.6044C7.38486 20.9222 6.54209 19.9818 5.9145 18.7834C5.30483 17.5665 5 16.1928 5 14.6625ZM17.1305 14.7178C17.1305 13.6668 16.9154 12.7542 16.485 11.9798C16.0726 11.2054 15.5257 10.6154 14.8443 10.2097C14.1629 9.8041 13.4277 9.60128 12.6387 9.60128C11.8498 9.60128 11.1146 9.8041 10.4332 10.2097C9.7518 10.5969 9.19593 11.1777 8.76557 11.9521C8.35315 12.7081 8.14694 13.6115 8.14694 14.6625C8.14694 15.7134 8.35315 16.6353 8.76557 17.4282C9.19593 18.221 9.7518 18.8295 10.4332 19.2535C11.1325 19.6592 11.8677 19.862 12.6387 19.862C13.4277 19.862 14.1629 19.6592 14.8443 19.2535C15.5257 18.8479 16.0726 18.2579 16.485 17.4835C16.9154 16.6907 17.1305 15.7688 17.1305 14.7178Z"/>
<path d="M37.834 14.3583C37.834 14.9298 37.7982 15.4461 37.7265 15.907H26.4028C26.4925 17.1239 26.9318 18.1012 27.7208 18.8387C28.5098 19.5762 29.4781 19.9449 30.6257 19.9449C32.2753 19.9449 33.4409 19.2351 34.1223 17.8154H37.4306C36.9823 19.2166 36.1664 20.369 34.983 21.2725C33.8174 22.1575 32.365 22.6 30.6257 22.6C29.2091 22.6 27.936 22.2773 26.8063 21.632C25.6945 20.9682 24.8159 20.0464 24.1704 18.8663C23.5428 17.6679 23.229 16.285 23.229 14.7178C23.229 13.1506 23.5338 11.777 24.1435 10.5969C24.7711 9.39846 25.6408 8.47657 26.7525 7.83124C27.8822 7.18592 29.1732 6.86325 30.6257 6.86325C32.0243 6.86325 33.2705 7.1767 34.3643 7.80359C35.4581 8.43047 36.3099 9.31549 36.9195 10.4586C37.5292 11.5834 37.834 12.8832 37.834 14.3583ZM34.6333 13.3626C34.6154 12.201 34.2119 11.2699 33.4229 10.5693C32.634 9.86863 31.6567 9.51831 30.4912 9.51831C29.4332 9.51831 28.5277 9.86863 27.7746 10.5693C27.0215 11.2515 26.5732 12.1826 26.4297 13.3626H34.6333Z"/>
<path d="M46.5806 19.5301L50.7765 7.11216H54.031L48.3827 22.3511H44.7247L39.1032 7.11216H42.3847L46.5806 19.5301Z"/>
<path d="M57.5861 22.5447C57.0302 22.5447 56.564 22.3511 56.1874 21.9639C55.8109 21.5767 55.6226 21.0973 55.6226 20.5257C55.6226 19.9542 55.8109 19.4748 56.1874 19.0876C56.564 18.7004 57.0302 18.5068 57.5861 18.5068C58.124 18.5068 58.5813 18.7004 58.9578 19.0876C59.3344 19.4748 59.5226 19.9542 59.5226 20.5257C59.5226 21.0973 59.3344 21.5767 58.9578 21.9639C58.5813 22.3511 58.124 22.5447 57.5861 22.5447Z"/>
<path d="M69.0499 9.68425H66.3064V22.3511H63.2132V9.68425H61.4649V7.11216H63.2132V6.03355C63.2132 4.28194 63.6615 3.00973 64.5581 2.2169C65.4726 1.40563 66.8981 1 68.8347 1V3.6274C67.9022 3.6274 67.2478 3.81178 66.8712 4.18054C66.4946 4.53086 66.3064 5.14853 66.3064 6.03355V7.11216H69.0499V9.68425Z"/>
<path d="M73.3273 5.09321C72.7714 5.09321 72.3052 4.89962 71.9287 4.51242C71.5521 4.12522 71.3638 3.64584 71.3638 3.07426C71.3638 2.50269 71.5521 2.0233 71.9287 1.63611C72.3052 1.24891 72.7714 1.05531 73.3273 1.05531C73.8652 1.05531 74.3225 1.24891 74.6991 1.63611C75.0756 2.0233 75.2639 2.50269 75.2639 3.07426C75.2639 3.64584 75.0756 4.12522 74.6991 4.51242C74.3225 4.89962 73.8652 5.09321 73.3273 5.09321ZM74.8335 7.11216V22.3511H71.7673V7.11216H74.8335Z"/>
<path d="M86.3366 6.86325C87.5021 6.86325 88.5422 7.11216 89.4566 7.60999C90.3891 8.10781 91.1153 8.84533 91.6353 9.82254C92.1553 10.7997 92.4153 11.9798 92.4153 13.3626V22.3511H89.376V13.8328C89.376 12.4684 89.0442 11.4266 88.3808 10.7076C87.7173 9.97004 86.8118 9.60128 85.6642 9.60128C84.5166 9.60128 83.6021 9.97004 82.9207 10.7076C82.2572 11.4266 81.9255 12.4684 81.9255 13.8328V22.3511H78.8593V7.11216H81.9255V8.85455C82.4276 8.22766 83.0641 7.73905 83.8352 7.38873C84.6242 7.03841 85.458 6.86325 86.3366 6.86325Z"/>
<path d="M95.3044 14.6625C95.3044 13.1321 95.6093 11.777 96.2189 10.5969C96.8465 9.4169 97.6893 8.50423 98.7472 7.8589C99.8231 7.19513 101.007 6.86325 102.298 6.86325C103.463 6.86325 104.476 7.10295 105.337 7.58233C106.216 8.04328 106.915 8.62407 107.435 9.32471V7.11216H110.528V22.3511H107.435V20.0832C106.915 20.8023 106.207 21.4015 105.31 21.8809C104.414 22.3603 103.391 22.6 102.244 22.6C100.971 22.6 99.8052 22.2681 98.7472 21.6044C97.6893 20.9222 96.8465 19.9818 96.2189 18.7834C95.6093 17.5665 95.3044 16.1928 95.3044 14.6625ZM107.435 14.7178C107.435 13.6668 107.22 12.7542 106.789 11.9798C106.377 11.2054 105.83 10.6154 105.149 10.2097C104.467 9.8041 103.732 9.60128 102.943 9.60128C102.154 9.60128 101.419 9.8041 100.738 10.2097C100.056 10.5969 99.5004 11.1777 99.07 11.9521C98.6576 12.7081 98.4514 13.6115 98.4514 14.6625C98.4514 15.7134 98.6576 16.6353 99.07 17.4282C99.5004 18.221 100.056 18.8295 100.738 19.2535C101.437 19.6592 102.172 19.862 102.943 19.862C103.732 19.862 104.467 19.6592 105.149 19.2535C105.83 18.8479 106.377 18.2579 106.789 17.4835C107.22 16.6907 107.435 15.7688 107.435 14.7178Z"/>
<path d="M122.033 6.86325C123.198 6.86325 124.238 7.11216 125.153 7.60999C126.085 8.10781 126.812 8.84533 127.332 9.82254C127.852 10.7997 128.112 11.9798 128.112 13.3626V22.3511H125.072V13.8328C125.072 12.4684 124.74 11.4266 124.077 10.7076C123.414 9.97004 122.508 9.60128 121.36 9.60128C120.213 9.60128 119.298 9.97004 118.617 10.7076C117.953 11.4266 117.622 12.4684 117.622 13.8328V22.3511H114.556V7.11216H117.622V8.85455C118.124 8.22766 118.76 7.73905 119.531 7.38873C120.32 7.03841 121.154 6.86325 122.033 6.86325Z"/>
<path d="M131.001 14.7178C131.001 13.1506 131.306 11.777 131.915 10.5969C132.543 9.39846 133.403 8.47657 134.497 7.83124C135.591 7.18592 136.846 6.86325 138.263 6.86325C140.056 6.86325 141.535 7.30576 142.701 8.19078C143.884 9.05736 144.682 10.3019 145.095 11.9245H141.786C141.517 11.1685 141.087 10.5785 140.495 10.1544C139.904 9.73035 139.159 9.51831 138.263 9.51831C137.008 9.51831 136.004 9.97926 135.25 10.9012C134.515 11.8046 134.148 13.0768 134.148 14.7178C134.148 16.3588 134.515 17.6402 135.25 18.5621C136.004 19.484 137.008 19.9449 138.263 19.9449C140.038 19.9449 141.213 19.1429 141.786 17.5388H145.095C144.664 19.0876 143.857 20.3229 142.674 21.2448C141.49 22.1483 140.02 22.6 138.263 22.6C136.846 22.6 135.591 22.2773 134.497 21.632C133.403 20.9682 132.543 20.0464 131.915 18.8663C131.306 17.6679 131.001 16.285 131.001 14.7178Z"/>
<path d="M161.733 14.3583C161.733 14.9298 161.698 15.4461 161.626 15.907H150.302C150.392 17.1239 150.831 18.1012 151.62 18.8387C152.409 19.5762 153.377 19.9449 154.525 19.9449C156.175 19.9449 157.34 19.2351 158.022 17.8154H161.33C160.882 19.2166 160.066 20.369 158.882 21.2725C157.717 22.1575 156.264 22.6 154.525 22.6C153.108 22.6 151.835 22.2773 150.706 21.632C149.594 20.9682 148.715 20.0464 148.07 18.8663C147.442 17.6679 147.128 16.285 147.128 14.7178C147.128 13.1506 147.433 11.777 148.043 10.5969C148.67 9.39846 149.54 8.47657 150.652 7.83124C151.782 7.18592 153.073 6.86325 154.525 6.86325C155.924 6.86325 157.17 7.1767 158.264 7.80359C159.358 8.43047 160.209 9.31549 160.819 10.4586C161.429 11.5834 161.733 12.8832 161.733 14.3583ZM158.533 13.3626C158.515 12.201 158.111 11.2699 157.322 10.5693C156.533 9.86863 155.556 9.51831 154.391 9.51831C153.333 9.51831 152.427 9.86863 151.674 10.5693C150.921 11.2515 150.473 12.1826 150.329 13.3626H158.533Z"/>
</mask>
<path d="M5 14.6625C5 13.1321 5.30483 11.777 5.9145 10.5969C6.54209 9.4169 7.38486 8.50423 8.44281 7.8589C9.51869 7.19513 10.7111 6.86325 12.0201 6.86325C12.9884 6.86325 13.9388 7.08451 14.8712 7.52702C15.8215 7.95109 16.5747 8.52266 17.1305 9.24174V1.88502H20.2237V22.3511H17.1305V20.0556C16.6285 20.7931 15.9291 21.4015 15.0326 21.8809C14.1539 22.3603 13.1408 22.6 11.9932 22.6C10.7022 22.6 9.51869 22.2681 8.44281 21.6044C7.38486 20.9222 6.54209 19.9818 5.9145 18.7834C5.30483 17.5665 5 16.1928 5 14.6625ZM17.1305 14.7178C17.1305 13.6668 16.9154 12.7542 16.485 11.9798C16.0726 11.2054 15.5257 10.6154 14.8443 10.2097C14.1629 9.8041 13.4277 9.60128 12.6387 9.60128C11.8498 9.60128 11.1146 9.8041 10.4332 10.2097C9.7518 10.5969 9.19593 11.1777 8.76557 11.9521C8.35315 12.7081 8.14694 13.6115 8.14694 14.6625C8.14694 15.7134 8.35315 16.6353 8.76557 17.4282C9.19593 18.221 9.7518 18.8295 10.4332 19.2535C11.1325 19.6592 11.8677 19.862 12.6387 19.862C13.4277 19.862 14.1629 19.6592 14.8443 19.2535C15.5257 18.8479 16.0726 18.2579 16.485 17.4835C16.9154 16.6907 17.1305 15.7688 17.1305 14.7178Z" fill="white"/>
<path d="M37.834 14.3583C37.834 14.9298 37.7982 15.4461 37.7265 15.907H26.4028C26.4925 17.1239 26.9318 18.1012 27.7208 18.8387C28.5098 19.5762 29.4781 19.9449 30.6257 19.9449C32.2753 19.9449 33.4409 19.2351 34.1223 17.8154H37.4306C36.9823 19.2166 36.1664 20.369 34.983 21.2725C33.8174 22.1575 32.365 22.6 30.6257 22.6C29.2091 22.6 27.936 22.2773 26.8063 21.632C25.6945 20.9682 24.8159 20.0464 24.1704 18.8663C23.5428 17.6679 23.229 16.285 23.229 14.7178C23.229 13.1506 23.5338 11.777 24.1435 10.5969C24.7711 9.39846 25.6408 8.47657 26.7525 7.83124C27.8822 7.18592 29.1732 6.86325 30.6257 6.86325C32.0243 6.86325 33.2705 7.1767 34.3643 7.80359C35.4581 8.43047 36.3099 9.31549 36.9195 10.4586C37.5292 11.5834 37.834 12.8832 37.834 14.3583ZM34.6333 13.3626C34.6154 12.201 34.2119 11.2699 33.4229 10.5693C32.634 9.86863 31.6567 9.51831 30.4912 9.51831C29.4332 9.51831 28.5277 9.86863 27.7746 10.5693C27.0215 11.2515 26.5732 12.1826 26.4297 13.3626H34.6333Z" fill="white"/>
<path d="M46.5806 19.5301L50.7765 7.11216H54.031L48.3827 22.3511H44.7247L39.1032 7.11216H42.3847L46.5806 19.5301Z" fill="white"/>
<path d="M57.5861 22.5447C57.0302 22.5447 56.564 22.3511 56.1874 21.9639C55.8109 21.5767 55.6226 21.0973 55.6226 20.5257C55.6226 19.9542 55.8109 19.4748 56.1874 19.0876C56.564 18.7004 57.0302 18.5068 57.5861 18.5068C58.124 18.5068 58.5813 18.7004 58.9578 19.0876C59.3344 19.4748 59.5226 19.9542 59.5226 20.5257C59.5226 21.0973 59.3344 21.5767 58.9578 21.9639C58.5813 22.3511 58.124 22.5447 57.5861 22.5447Z" fill="white"/>
<path d="M69.0499 9.68425H66.3064V22.3511H63.2132V9.68425H61.4649V7.11216H63.2132V6.03355C63.2132 4.28194 63.6615 3.00973 64.5581 2.2169C65.4726 1.40563 66.8981 1 68.8347 1V3.6274C67.9022 3.6274 67.2478 3.81178 66.8712 4.18054C66.4946 4.53086 66.3064 5.14853 66.3064 6.03355V7.11216H69.0499V9.68425Z" fill="white"/>
<path d="M73.3273 5.09321C72.7714 5.09321 72.3052 4.89962 71.9287 4.51242C71.5521 4.12522 71.3638 3.64584 71.3638 3.07426C71.3638 2.50269 71.5521 2.0233 71.9287 1.63611C72.3052 1.24891 72.7714 1.05531 73.3273 1.05531C73.8652 1.05531 74.3225 1.24891 74.6991 1.63611C75.0756 2.0233 75.2639 2.50269 75.2639 3.07426C75.2639 3.64584 75.0756 4.12522 74.6991 4.51242C74.3225 4.89962 73.8652 5.09321 73.3273 5.09321ZM74.8335 7.11216V22.3511H71.7673V7.11216H74.8335Z" fill="white"/>
<path d="M86.3366 6.86325C87.5021 6.86325 88.5422 7.11216 89.4566 7.60999C90.3891 8.10781 91.1153 8.84533 91.6353 9.82254C92.1553 10.7997 92.4153 11.9798 92.4153 13.3626V22.3511H89.376V13.8328C89.376 12.4684 89.0442 11.4266 88.3808 10.7076C87.7173 9.97004 86.8118 9.60128 85.6642 9.60128C84.5166 9.60128 83.6021 9.97004 82.9207 10.7076C82.2572 11.4266 81.9255 12.4684 81.9255 13.8328V22.3511H78.8593V7.11216H81.9255V8.85455C82.4276 8.22766 83.0641 7.73905 83.8352 7.38873C84.6242 7.03841 85.458 6.86325 86.3366 6.86325Z" fill="white"/>
<path d="M95.3044 14.6625C95.3044 13.1321 95.6093 11.777 96.2189 10.5969C96.8465 9.4169 97.6893 8.50423 98.7472 7.8589C99.8231 7.19513 101.007 6.86325 102.298 6.86325C103.463 6.86325 104.476 7.10295 105.337 7.58233C106.216 8.04328 106.915 8.62407 107.435 9.32471V7.11216H110.528V22.3511H107.435V20.0832C106.915 20.8023 106.207 21.4015 105.31 21.8809C104.414 22.3603 103.391 22.6 102.244 22.6C100.971 22.6 99.8052 22.2681 98.7472 21.6044C97.6893 20.9222 96.8465 19.9818 96.2189 18.7834C95.6093 17.5665 95.3044 16.1928 95.3044 14.6625ZM107.435 14.7178C107.435 13.6668 107.22 12.7542 106.789 11.9798C106.377 11.2054 105.83 10.6154 105.149 10.2097C104.467 9.8041 103.732 9.60128 102.943 9.60128C102.154 9.60128 101.419 9.8041 100.738 10.2097C100.056 10.5969 99.5004 11.1777 99.07 11.9521C98.6576 12.7081 98.4514 13.6115 98.4514 14.6625C98.4514 15.7134 98.6576 16.6353 99.07 17.4282C99.5004 18.221 100.056 18.8295 100.738 19.2535C101.437 19.6592 102.172 19.862 102.943 19.862C103.732 19.862 104.467 19.6592 105.149 19.2535C105.83 18.8479 106.377 18.2579 106.789 17.4835C107.22 16.6907 107.435 15.7688 107.435 14.7178Z" fill="white"/>
<path d="M122.033 6.86325C123.198 6.86325 124.238 7.11216 125.153 7.60999C126.085 8.10781 126.812 8.84533 127.332 9.82254C127.852 10.7997 128.112 11.9798 128.112 13.3626V22.3511H125.072V13.8328C125.072 12.4684 124.74 11.4266 124.077 10.7076C123.414 9.97004 122.508 9.60128 121.36 9.60128C120.213 9.60128 119.298 9.97004 118.617 10.7076C117.953 11.4266 117.622 12.4684 117.622 13.8328V22.3511H114.556V7.11216H117.622V8.85455C118.124 8.22766 118.76 7.73905 119.531 7.38873C120.32 7.03841 121.154 6.86325 122.033 6.86325Z" fill="white"/>
<path d="M131.001 14.7178C131.001 13.1506 131.306 11.777 131.915 10.5969C132.543 9.39846 133.403 8.47657 134.497 7.83124C135.591 7.18592 136.846 6.86325 138.263 6.86325C140.056 6.86325 141.535 7.30576 142.701 8.19078C143.884 9.05736 144.682 10.3019 145.095 11.9245H141.786C141.517 11.1685 141.087 10.5785 140.495 10.1544C139.904 9.73035 139.159 9.51831 138.263 9.51831C137.008 9.51831 136.004 9.97926 135.25 10.9012C134.515 11.8046 134.148 13.0768 134.148 14.7178C134.148 16.3588 134.515 17.6402 135.25 18.5621C136.004 19.484 137.008 19.9449 138.263 19.9449C140.038 19.9449 141.213 19.1429 141.786 17.5388H145.095C144.664 19.0876 143.857 20.3229 142.674 21.2448C141.49 22.1483 140.02 22.6 138.263 22.6C136.846 22.6 135.591 22.2773 134.497 21.632C133.403 20.9682 132.543 20.0464 131.915 18.8663C131.306 17.6679 131.001 16.285 131.001 14.7178Z" fill="white"/>
<path d="M161.733 14.3583C161.733 14.9298 161.698 15.4461 161.626 15.907H150.302C150.392 17.1239 150.831 18.1012 151.62 18.8387C152.409 19.5762 153.377 19.9449 154.525 19.9449C156.175 19.9449 157.34 19.2351 158.022 17.8154H161.33C160.882 19.2166 160.066 20.369 158.882 21.2725C157.717 22.1575 156.264 22.6 154.525 22.6C153.108 22.6 151.835 22.2773 150.706 21.632C149.594 20.9682 148.715 20.0464 148.07 18.8663C147.442 17.6679 147.128 16.285 147.128 14.7178C147.128 13.1506 147.433 11.777 148.043 10.5969C148.67 9.39846 149.54 8.47657 150.652 7.83124C151.782 7.18592 153.073 6.86325 154.525 6.86325C155.924 6.86325 157.17 7.1767 158.264 7.80359C159.358 8.43047 160.209 9.31549 160.819 10.4586C161.429 11.5834 161.733 12.8832 161.733 14.3583ZM158.533 13.3626C158.515 12.201 158.111 11.2699 157.322 10.5693C156.533 9.86863 155.556 9.51831 154.391 9.51831C153.333 9.51831 152.427 9.86863 151.674 10.5693C150.921 11.2515 150.473 12.1826 150.329 13.3626H158.533Z" fill="white"/>
<path d="M5 14.6625C5 13.1321 5.30483 11.777 5.9145 10.5969C6.54209 9.4169 7.38486 8.50423 8.44281 7.8589C9.51869 7.19513 10.7111 6.86325 12.0201 6.86325C12.9884 6.86325 13.9388 7.08451 14.8712 7.52702C15.8215 7.95109 16.5747 8.52266 17.1305 9.24174V1.88502H20.2237V22.3511H17.1305V20.0556C16.6285 20.7931 15.9291 21.4015 15.0326 21.8809C14.1539 22.3603 13.1408 22.6 11.9932 22.6C10.7022 22.6 9.51869 22.2681 8.44281 21.6044C7.38486 20.9222 6.54209 19.9818 5.9145 18.7834C5.30483 17.5665 5 16.1928 5 14.6625ZM17.1305 14.7178C17.1305 13.6668 16.9154 12.7542 16.485 11.9798C16.0726 11.2054 15.5257 10.6154 14.8443 10.2097C14.1629 9.8041 13.4277 9.60128 12.6387 9.60128C11.8498 9.60128 11.1146 9.8041 10.4332 10.2097C9.7518 10.5969 9.19593 11.1777 8.76557 11.9521C8.35315 12.7081 8.14694 13.6115 8.14694 14.6625C8.14694 15.7134 8.35315 16.6353 8.76557 17.4282C9.19593 18.221 9.7518 18.8295 10.4332 19.2535C11.1325 19.6592 11.8677 19.862 12.6387 19.862C13.4277 19.862 14.1629 19.6592 14.8443 19.2535C15.5257 18.8479 16.0726 18.2579 16.485 17.4835C16.9154 16.6907 17.1305 15.7688 17.1305 14.7178Z" stroke="black" stroke-width="2" mask="url(#path-1-outside-1_34912_276)"/>
<path d="M37.834 14.3583C37.834 14.9298 37.7982 15.4461 37.7265 15.907H26.4028C26.4925 17.1239 26.9318 18.1012 27.7208 18.8387C28.5098 19.5762 29.4781 19.9449 30.6257 19.9449C32.2753 19.9449 33.4409 19.2351 34.1223 17.8154H37.4306C36.9823 19.2166 36.1664 20.369 34.983 21.2725C33.8174 22.1575 32.365 22.6 30.6257 22.6C29.2091 22.6 27.936 22.2773 26.8063 21.632C25.6945 20.9682 24.8159 20.0464 24.1704 18.8663C23.5428 17.6679 23.229 16.285 23.229 14.7178C23.229 13.1506 23.5338 11.777 24.1435 10.5969C24.7711 9.39846 25.6408 8.47657 26.7525 7.83124C27.8822 7.18592 29.1732 6.86325 30.6257 6.86325C32.0243 6.86325 33.2705 7.1767 34.3643 7.80359C35.4581 8.43047 36.3099 9.31549 36.9195 10.4586C37.5292 11.5834 37.834 12.8832 37.834 14.3583ZM34.6333 13.3626C34.6154 12.201 34.2119 11.2699 33.4229 10.5693C32.634 9.86863 31.6567 9.51831 30.4912 9.51831C29.4332 9.51831 28.5277 9.86863 27.7746 10.5693C27.0215 11.2515 26.5732 12.1826 26.4297 13.3626H34.6333Z" stroke="black" stroke-width="2" mask="url(#path-1-outside-1_34912_276)"/>
<path d="M46.5806 19.5301L50.7765 7.11216H54.031L48.3827 22.3511H44.7247L39.1032 7.11216H42.3847L46.5806 19.5301Z" stroke="black" stroke-width="2" mask="url(#path-1-outside-1_34912_276)"/>
<path d="M57.5861 22.5447C57.0302 22.5447 56.564 22.3511 56.1874 21.9639C55.8109 21.5767 55.6226 21.0973 55.6226 20.5257C55.6226 19.9542 55.8109 19.4748 56.1874 19.0876C56.564 18.7004 57.0302 18.5068 57.5861 18.5068C58.124 18.5068 58.5813 18.7004 58.9578 19.0876C59.3344 19.4748 59.5226 19.9542 59.5226 20.5257C59.5226 21.0973 59.3344 21.5767 58.9578 21.9639C58.5813 22.3511 58.124 22.5447 57.5861 22.5447Z" stroke="black" stroke-width="2" mask="url(#path-1-outside-1_34912_276)"/>
<path d="M69.0499 9.68425H66.3064V22.3511H63.2132V9.68425H61.4649V7.11216H63.2132V6.03355C63.2132 4.28194 63.6615 3.00973 64.5581 2.2169C65.4726 1.40563 66.8981 1 68.8347 1V3.6274C67.9022 3.6274 67.2478 3.81178 66.8712 4.18054C66.4946 4.53086 66.3064 5.14853 66.3064 6.03355V7.11216H69.0499V9.68425Z" stroke="black" stroke-width="2" mask="url(#path-1-outside-1_34912_276)"/>
<path d="M73.3273 5.09321C72.7714 5.09321 72.3052 4.89962 71.9287 4.51242C71.5521 4.12522 71.3638 3.64584 71.3638 3.07426C71.3638 2.50269 71.5521 2.0233 71.9287 1.63611C72.3052 1.24891 72.7714 1.05531 73.3273 1.05531C73.8652 1.05531 74.3225 1.24891 74.6991 1.63611C75.0756 2.0233 75.2639 2.50269 75.2639 3.07426C75.2639 3.64584 75.0756 4.12522 74.6991 4.51242C74.3225 4.89962 73.8652 5.09321 73.3273 5.09321ZM74.8335 7.11216V22.3511H71.7673V7.11216H74.8335Z" stroke="black" stroke-width="2" mask="url(#path-1-outside-1_34912_276)"/>
<path d="M86.3366 6.86325C87.5021 6.86325 88.5422 7.11216 89.4566 7.60999C90.3891 8.10781 91.1153 8.84533 91.6353 9.82254C92.1553 10.7997 92.4153 11.9798 92.4153 13.3626V22.3511H89.376V13.8328C89.376 12.4684 89.0442 11.4266 88.3808 10.7076C87.7173 9.97004 86.8118 9.60128 85.6642 9.60128C84.5166 9.60128 83.6021 9.97004 82.9207 10.7076C82.2572 11.4266 81.9255 12.4684 81.9255 13.8328V22.3511H78.8593V7.11216H81.9255V8.85455C82.4276 8.22766 83.0641 7.73905 83.8352 7.38873C84.6242 7.03841 85.458 6.86325 86.3366 6.86325Z" stroke="black" stroke-width="2" mask="url(#path-1-outside-1_34912_276)"/>
<path d="M95.3044 14.6625C95.3044 13.1321 95.6093 11.777 96.2189 10.5969C96.8465 9.4169 97.6893 8.50423 98.7472 7.8589C99.8231 7.19513 101.007 6.86325 102.298 6.86325C103.463 6.86325 104.476 7.10295 105.337 7.58233C106.216 8.04328 106.915 8.62407 107.435 9.32471V7.11216H110.528V22.3511H107.435V20.0832C106.915 20.8023 106.207 21.4015 105.31 21.8809C104.414 22.3603 103.391 22.6 102.244 22.6C100.971 22.6 99.8052 22.2681 98.7472 21.6044C97.6893 20.9222 96.8465 19.9818 96.2189 18.7834C95.6093 17.5665 95.3044 16.1928 95.3044 14.6625ZM107.435 14.7178C107.435 13.6668 107.22 12.7542 106.789 11.9798C106.377 11.2054 105.83 10.6154 105.149 10.2097C104.467 9.8041 103.732 9.60128 102.943 9.60128C102.154 9.60128 101.419 9.8041 100.738 10.2097C100.056 10.5969 99.5004 11.1777 99.07 11.9521C98.6576 12.7081 98.4514 13.6115 98.4514 14.6625C98.4514 15.7134 98.6576 16.6353 99.07 17.4282C99.5004 18.221 100.056 18.8295 100.738 19.2535C101.437 19.6592 102.172 19.862 102.943 19.862C103.732 19.862 104.467 19.6592 105.149 19.2535C105.83 18.8479 106.377 18.2579 106.789 17.4835C107.22 16.6907 107.435 15.7688 107.435 14.7178Z" stroke="black" stroke-width="2" mask="url(#path-1-outside-1_34912_276)"/>
<path d="M122.033 6.86325C123.198 6.86325 124.238 7.11216 125.153 7.60999C126.085 8.10781 126.812 8.84533 127.332 9.82254C127.852 10.7997 128.112 11.9798 128.112 13.3626V22.3511H125.072V13.8328C125.072 12.4684 124.74 11.4266 124.077 10.7076C123.414 9.97004 122.508 9.60128 121.36 9.60128C120.213 9.60128 119.298 9.97004 118.617 10.7076C117.953 11.4266 117.622 12.4684 117.622 13.8328V22.3511H114.556V7.11216H117.622V8.85455C118.124 8.22766 118.76 7.73905 119.531 7.38873C120.32 7.03841 121.154 6.86325 122.033 6.86325Z" stroke="black" stroke-width="2" mask="url(#path-1-outside-1_34912_276)"/>
<path d="M131.001 14.7178C131.001 13.1506 131.306 11.777 131.915 10.5969C132.543 9.39846 133.403 8.47657 134.497 7.83124C135.591 7.18592 136.846 6.86325 138.263 6.86325C140.056 6.86325 141.535 7.30576 142.701 8.19078C143.884 9.05736 144.682 10.3019 145.095 11.9245H141.786C141.517 11.1685 141.087 10.5785 140.495 10.1544C139.904 9.73035 139.159 9.51831 138.263 9.51831C137.008 9.51831 136.004 9.97926 135.25 10.9012C134.515 11.8046 134.148 13.0768 134.148 14.7178C134.148 16.3588 134.515 17.6402 135.25 18.5621C136.004 19.484 137.008 19.9449 138.263 19.9449C140.038 19.9449 141.213 19.1429 141.786 17.5388H145.095C144.664 19.0876 143.857 20.3229 142.674 21.2448C141.49 22.1483 140.02 22.6 138.263 22.6C136.846 22.6 135.591 22.2773 134.497 21.632C133.403 20.9682 132.543 20.0464 131.915 18.8663C131.306 17.6679 131.001 16.285 131.001 14.7178Z" stroke="black" stroke-width="2" mask="url(#path-1-outside-1_34912_276)"/>
<path d="M161.733 14.3583C161.733 14.9298 161.698 15.4461 161.626 15.907H150.302C150.392 17.1239 150.831 18.1012 151.62 18.8387C152.409 19.5762 153.377 19.9449 154.525 19.9449C156.175 19.9449 157.34 19.2351 158.022 17.8154H161.33C160.882 19.2166 160.066 20.369 158.882 21.2725C157.717 22.1575 156.264 22.6 154.525 22.6C153.108 22.6 151.835 22.2773 150.706 21.632C149.594 20.9682 148.715 20.0464 148.07 18.8663C147.442 17.6679 147.128 16.285 147.128 14.7178C147.128 13.1506 147.433 11.777 148.043 10.5969C148.67 9.39846 149.54 8.47657 150.652 7.83124C151.782 7.18592 153.073 6.86325 154.525 6.86325C155.924 6.86325 157.17 7.1767 158.264 7.80359C159.358 8.43047 160.209 9.31549 160.819 10.4586C161.429 11.5834 161.733 12.8832 161.733 14.3583ZM158.533 13.3626C158.515 12.201 158.111 11.2699 157.322 10.5693C156.533 9.86863 155.556 9.51831 154.391 9.51831C153.333 9.51831 152.427 9.86863 151.674 10.5693C150.921 11.2515 150.473 12.1826 150.329 13.3626H158.533Z" stroke="black" stroke-width="2" mask="url(#path-1-outside-1_34912_276)"/>
</g>
<defs>
<filter id="filter0_d_34912_276" x="0" y="0" width="166.733" height="31.6" filterUnits="userSpaceOnUse" color-interpolation-filters="sRGB">
<feFlood flood-opacity="0" result="BackgroundImageFix"/>
<feColorMatrix in="SourceAlpha" type="matrix" values="0 0 0 0 0 0 0 0 0 0 0 0 0 0 0 0 0 0 127 0" result="hardAlpha"/>
<feOffset dy="4"/>
<feGaussianBlur stdDeviation="2"/>
<feComposite in2="hardAlpha" operator="out"/>
<feColorMatrix type="matrix" values="0 0 0 0 0 0 0 0 0 0 0 0 0 0 0 0 0 0 0.25 0"/>
<feBlend mode="normal" in2="BackgroundImageFix" result="effect1_dropShadow_34912_276"/>
<feBlend mode="normal" in="SourceGraphic" in2="effect1_dropShadow_34912_276" result="shape"/>
</filter>
</defs>
</svg>
